<?xml version="1.0" encoding="UTF-8" standalone="no"?>
<!-- Created with Inkscape (http://www.inkscape.org/) -->

<svg
   width="8.5in"
   height="1.1in"
   viewBox="0 0 215.9 27.940001"
   version="1.1"
   id="svg1"
   inkscape:version="1.4.2 (f4327f4, 2025-05-13)"
   sodipodi:docname="logo_com_horiz.svg"
   inkscape:export-filename="sticker2.png"
   inkscape:export-xdpi="150"
   inkscape:export-ydpi="150"
   xmlns:inkscape="http://www.inkscape.org/namespaces/inkscape"
   xmlns:sodipodi="http://sodipodi.sourceforge.net/DTD/sodipodi-0.dtd"
   xmlns="http://www.w3.org/2000/svg"
   xmlns:svg="http://www.w3.org/2000/svg">
  <sodipodi:namedview
     id="namedview1"
     pagecolor="#ffffff"
     bordercolor="#111111"
     borderopacity="1"
     inkscape:showpageshadow="0"
     inkscape:pageopacity="0"
     inkscape:pagecheckerboard="1"
     inkscape:deskcolor="#d1d1d1"
     inkscape:document-units="mm"
     inkscape:zoom="1.0721378"
     inkscape:cx="359.56199"
     inkscape:cy="40.573143"
     inkscape:window-width="1920"
     inkscape:window-height="1111"
     inkscape:window-x="-9"
     inkscape:window-y="-9"
     inkscape:window-maximized="1"
     inkscape:current-layer="svg1"
     showgrid="false" />
  <defs
     id="defs1">
    <rect
       x="19.785892"
       y="17.807304"
       width="771.64984"
       height="173.45633"
       id="rect1" />
    <rect
       x="19.785892"
       y="17.807304"
       width="771.64984"
       height="173.45633"
       id="rect3" />
  </defs>
  <g
     inkscape:label="Paths"
     id="g5"
     transform="matrix(0.95828472,0,0,0.95828472,4.6115637,0.33747345)">
    <path
       style="font-size:25.4px;line-height:65%;font-family:Modak;-inkscape-font-specification:Modak;fill:#358757;stroke:#358757;stroke-width:5.89015;stroke-linecap:round;stroke-linejoin:round;stroke-dasharray:none;paint-order:stroke fill markers"
       d="m 11.339174,18.374523 -1.4386716,2.80293 q -0.9301758,0.347265 -2.021582,0.347265 -1.9223633,0 -3.1501953,-1.091406 -1.227832,-1.091406 -1.227832,-2.939355 0,-1.63711 1.1038086,-2.914551 1.1038086,-1.277441 3.1253906,-2.145605 -0.1488282,-0.409278 -0.5084961,-0.409278 -0.359668,0 -1.3146484,0.657325 Q 4.976772,12.198156 4.2698384,11.081945 3.5753072,9.9657343 3.5753072,8.5022577 q 0,-1.4634765 1.0790039,-2.5052734 1.0790039,-1.0417968 2.9765624,-1.0417968 1.6371094,0 2.6913085,0.6077148 l 1.314648,2.6168945 1.066602,-2.6789062 q 1.054199,-0.4712891 2.356445,-0.4712891 1.84795,0 3.001367,1.0169922 1.153418,1.0417969 1.153418,2.9145507 0,1.5502926 -1.116211,2.9145506 -1.103808,1.351856 -2.840136,2.145606 0.136426,0.359668 0.483691,0.359668 0.359668,0 1.153418,-0.545704 l 2.554883,3.199805 q 0,1.996777 -0.992188,3.187402 -1.091406,1.314649 -3.013769,1.314649 -2.926953,0 -4.105176,-3.162598 z m 21.046777,-3.224609 q 0,0.892969 0.198437,1.438672 0.198438,0.545703 0.694531,0.855761 0.0124,0.06201 0.0124,0.235645 v 0.223242 q 0,1.761133 -1.066602,2.740918 -0.942578,0.868164 -2.33164,0.868164 -0.942578,0 -1.723926,-0.446484 -0.781348,-0.446485 -1.116211,-1.289844 -0.42168,0 -0.42168,0.409277 0,0.347266 0.434082,0.781348 -0.806152,0.545703 -2.430859,0.545703 -2.294434,0 -3.671094,-1.240234 -1.364257,-1.252637 -1.364257,-3.485059 0,-2.244824 1.451074,-3.472656 1.32705,-1.103809 3.435449,-1.103809 0.719336,0 1.389062,0.09922 0.446485,0.08682 0.483692,0.09922 0.03721,-0.124023 0.03721,-0.21084 0,-0.322461 -0.545703,-0.434082 -0.545703,-0.111621 -1.42627,-0.111621 -1.872754,0 -3.199804,0.756543 -0.607715,-1.029395 -0.607715,-2.6044922 0,-0.8929687 0.223242,-1.3270508 0.892969,-0.4092773 2.269629,-0.7193359 1.37666,-0.3224609 2.902148,-0.3224609 3.150195,0 4.7625,1.3766601 1.612305,1.3766597 1.612305,3.9067387 z m -6.436817,0.607715 q -0.520898,0 -0.520898,0.471289 0,0.446484 0.607715,0.446484 0.42168,0 0.620117,-0.198437 0.198438,-0.21084 0.198438,-0.719336 z M 40.112611,6.3194453 v 8.7188477 q 0,1.847949 0.892969,2.406054 0.0124,0.06201 0.0124,0.235645 v 0.223242 q 0,1.773535 -0.905371,2.691309 -0.892969,0.917773 -2.54248,0.917773 -1.649512,0 -2.616895,-0.917773 -1.153418,-1.091407 -1.153418,-3.299024 V 4.4094844 q 1.302246,-0.79375 2.976563,-0.79375 1.686718,0 2.505273,0.7193359 0.830957,0.7069336 0.830957,1.984375 z m 13.989843,8.8304687 q 0,0.892969 0.198437,1.438672 0.198438,0.545703 0.694532,0.855761 0.0124,0.06201 0.0124,0.235645 v 0.223242 q 0,1.761133 -1.066602,2.740918 -0.942578,0.868164 -2.33164,0.868164 -0.942578,0 -1.723926,-0.446484 -0.781348,-0.446485 -1.116211,-1.289844 -0.42168,0 -0.42168,0.409277 0,0.347266 0.434083,0.781348 -0.806153,0.545703 -2.43086,0.545703 -2.294433,0 -3.671094,-1.240234 -1.364257,-1.252637 -1.364257,-3.485059 0,-2.244824 1.451074,-3.472656 1.327051,-1.103809 3.435449,-1.103809 0.719336,0 1.389063,0.09922 0.446484,0.08682 0.483691,0.09922 0.03721,-0.124023 0.03721,-0.21084 0,-0.322461 -0.545703,-0.434082 -0.545703,-0.111621 -1.42627,-0.111621 -1.872754,0 -3.199804,0.756543 -0.607715,-1.029395 -0.607715,-2.6044922 0,-0.8929687 0.223242,-1.3270508 0.892969,-0.4092773 2.269629,-0.7193359 1.37666,-0.3224609 2.902148,-0.3224609 3.150196,0 4.7625,1.3766601 1.612305,1.3766597 1.612305,3.9067387 z m -6.436816,0.607715 q -0.520899,0 -0.520899,0.471289 0,0.446484 0.607715,0.446484 0.42168,0 0.620117,-0.198437 0.198438,-0.21084 0.198438,-0.719336 z m 14.374316,-1.165821 v 1.661914 q 0.08682,0.08682 0.285254,0.08682 0.198437,0 0.285254,-0.136426 0.08682,-0.136426 0.08682,-0.471289 v -1.265039 q 0,-1.190625 -0.09922,-1.575098 -0.09922,-0.396875 -0.37207,-0.396875 -0.173633,0 -0.297656,0.124024 0.111621,1.227832 0.111621,1.971972 z M 58.083606,9.2463983 q 0,0.3720704 0.434082,0.3720704 0.744141,-1.1658203 1.748731,-1.7239258 1.00459,-0.5705078 2.418457,-0.5705078 1.413867,0 2.579687,0.4464844 1.599903,0.6325195 2.530078,2.0339843 1.165821,1.7735352 1.165821,4.6508792 0,3.237011 -1.736328,5.035351 -1.723926,1.785938 -4.787305,1.785938 -1.711523,0 -2.666504,-0.42168 -0.08682,0.04961 -0.08682,0.21084 0,0.37207 0.570508,0.533301 0.58291,0.16123 1.996777,0.235644 V 25.1338 q -1.277442,0.570508 -2.80293,0.570508 -1.79834,0 -2.716113,-0.657324 -1.041797,-0.706934 -1.041797,-2.17041 v -9.983887 q -0.731738,-1.029394 -0.731738,-2.554882 0,-0.6201176 0.198437,-1.3518559 0.198438,-0.7317382 0.533301,-1.2526367 h 1.761133 q 1.079004,0 1.649512,0.2976563 -1.016993,0.7565429 -1.016993,1.2154296 z m 24.06055,5.9035157 q 0,0.892969 0.198438,1.438672 0.198437,0.545703 0.694531,0.855761 0.0124,0.06201 0.0124,0.235645 v 0.223242 q 0,1.761133 -1.066601,2.740918 -0.942578,0.868164 -2.331641,0.868164 -0.942578,0 -1.723926,-0.446484 -0.781347,-0.446485 -1.116211,-1.289844 -0.421679,0 -0.421679,0.409277 0,0.347266 0.434082,0.781348 -0.806153,0.545703 -2.43086,0.545703 -2.294433,0 -3.671093,-1.240234 -1.364258,-1.252637 -1.364258,-3.485059 0,-2.244824 1.451074,-3.472656 1.327051,-1.103809 3.435449,-1.103809 0.719336,0 1.389063,0.09922 0.446484,0.08682 0.483691,0.09922 0.03721,-0.124023 0.03721,-0.21084 0,-0.322461 -0.545703,-0.434082 -0.545703,-0.111621 -1.426269,-0.111621 -1.872754,0 -3.199805,0.756543 -0.607715,-1.029395 -0.607715,-2.6044922 0,-0.8929687 0.223242,-1.3270508 0.892969,-0.4092773 2.269629,-0.7193359 1.37666,-0.3224609 2.902149,-0.3224609 3.150195,0 4.7625,1.3766601 1.612304,1.3766597 1.612304,3.9067387 z m -6.436816,0.607715 q -0.520899,0 -0.520899,0.471289 0,0.446484 0.607715,0.446484 0.42168,0 0.620117,-0.198437 0.198438,-0.21084 0.198438,-0.719336 z M 89.870816,6.3194453 v 8.7188477 q 0,1.847949 0.892969,2.406054 0.0124,0.06201 0.0124,0.235645 v 0.223242 q 0,1.773535 -0.905371,2.691309 -0.892968,0.917773 -2.54248,0.917773 -1.649512,0 -2.616895,-0.917773 -1.153417,-1.091407 -1.153417,-3.299024 V 4.4094844 q 1.302246,-0.79375 2.976562,-0.79375 1.686719,0 2.505273,0.7193359 0.830957,0.7069336 0.830957,1.984375 z m 13.989844,8.8304687 q 0,0.892969 0.19843,1.438672 0.19844,0.545703 0.69453,0.855761 0.0124,0.06201 0.0124,0.235645 v 0.223242 q 0,1.761133 -1.0666,2.740918 -0.94258,0.868164 -2.33165,0.868164 -0.94257,0 -1.723921,-0.446484 -0.781348,-0.446485 -1.116211,-1.289844 -0.42168,0 -0.42168,0.409277 0,0.347266 0.434082,0.781348 -0.806152,0.545703 -2.430859,0.545703 -2.294434,0 -3.671094,-1.240234 -1.364258,-1.252637 -1.364258,-3.485059 0,-2.244824 1.451074,-3.472656 1.327051,-1.103809 3.43545,-1.103809 0.719336,0 1.389062,0.09922 0.446484,0.08682 0.483692,0.09922 0.03721,-0.124023 0.03721,-0.21084 0,-0.322461 -0.545704,-0.434082 -0.545703,-0.111621 -1.426269,-0.111621 -1.872754,0 -3.199805,0.756543 -0.607715,-1.029395 -0.607715,-2.6044922 0,-0.8929687 0.223243,-1.3270508 0.892968,-0.4092773 2.269629,-0.7193359 1.37666,-0.3224609 2.902148,-0.3224609 3.150196,0 4.762496,1.3766601 1.61231,1.3766597 1.61231,3.9067387 z m -6.436821,0.607715 q -0.520898,0 -0.520898,0.471289 0,0.446484 0.607715,0.446484 0.421679,0 0.620117,-0.198437 0.198437,-0.21084 0.198437,-0.719336 z M 118.3962,15.149914 q 0,0.892969 0.19844,1.438672 0.19844,0.545703 0.69453,0.855761 0.0124,0.06201 0.0124,0.235645 v 0.223242 q 0,1.711524 -0.99218,2.666504 -0.97979,0.942578 -2.54248,0.942578 -1.5503,0 -2.51768,-0.880566 -1.12861,-1.00459 -1.12861,-3.050977 0,-0.868164 0.0744,-1.525488 0.0868,-0.669727 0.11162,-0.95498 0.0372,-0.285254 0.0744,-0.533301 0.0372,-0.248047 0.0372,-0.731739 0,-0.483691 -0.13642,-0.694531 -0.12403,-0.21084 -0.35967,-0.21084 -0.22324,0 -0.39688,0.09922 l 0.16123,2.021582 q -0.22324,1.252637 -0.22324,2.654102 0,1.401464 0.63252,2.554882 -1.21543,1.252637 -3.41064,1.252637 -1.25264,0 -2.17041,-0.657324 -1.0666,-0.744141 -1.0666,-1.971973 v -6.002734 q -0.73174,-1.029395 -0.73174,-2.530078 0,-1.513086 0.73174,-2.6168946 h 2.20761 q 0.88057,0 1.50069,0.6573242 -0.54571,0.5084961 -0.54571,0.8433594 0,0.3844727 0.43409,0.3844727 0.5457,-0.9425782 1.66191,-1.5626953 1.12861,-0.6201172 2.55488,-0.6201172 2.14561,0 3.48506,1.0541992 1.68672,1.3270507 1.68672,4.1175776 z m 8.27237,-2.654102 q -0.12403,-0.124023 -0.29766,-0.124023 -0.27285,0 -0.37207,0.396875 -0.0992,0.384473 -0.0992,1.575098 v 1.265039 q 0,0.334863 0.0868,0.471289 0.0868,0.136425 0.28525,0.136425 0.19844,0 0.28525,-0.08682 v -1.661914 q 0,-1.21543 0.11163,-1.971973 z M 125.7756,5.1660273 q 0.65732,-0.7689453 1.45107,-1.1534179 0.79375,-0.396875 2.02158,-0.396875 1.48828,0 2.41846,0.830957 0.95498,0.8929687 0.95498,2.4060546 v 8.185547 q 0,1.847949 0.89297,2.406054 0.0124,0.06201 0.0124,0.235645 v 0.223242 q 0,1.761133 -1.0666,2.740918 -0.94258,0.868164 -2.33164,0.868164 -0.96738,0 -1.67432,-0.409277 -0.83095,-0.471289 -1.16582,-1.289844 -0.42168,0 -0.42168,0.409277 0,0.186036 0.13643,0.434082 0.14883,0.235645 0.39687,0.42168 -0.73173,0.434082 -1.89755,0.434082 -1.5751,0 -2.95176,-0.719336 -1.36426,-0.731738 -2.17041,-2.195215 -0.93018,-1.674316 -0.93018,-4.055566 0,-3.175 1.77354,-4.9857421 1.78593,-1.8107421 4.55166,-1.8107421 1.63711,0 2.85254,0.6201172 0.13642,-0.1364258 0.13642,-0.285254 0,-0.3720703 -0.88056,-0.6325195 -0.88057,-0.2604492 -1.77354,-0.2604492 0,-1.265039 -0.33486,-2.021582 z m 14.67198,4.9609377 v 4.911328 q 0,1.847949 0.89296,2.406054 0.0124,0.06201 0.0124,0.235645 v 0.223242 q 0,1.823145 -0.99219,2.740918 -0.91777,0.868164 -2.45566,0.868164 -1.52549,0 -2.51768,-0.868164 -1.25264,-1.103808 -1.25264,-3.224609 V 9.3580194 q 0.22325,-0.1612304 0.48369,-0.2604492 0.26045,-0.099219 0.54571,-0.2480469 -0.5333,-0.2728515 -0.96739,-0.9425781 -0.43408,-0.6821289 -0.43408,-1.5874999 0,-1.5626953 1.0294,-2.5548828 1.02939,-0.9921875 2.51767,-0.9921875 1.50069,0 2.50528,1.0169922 1.01699,1.0045898 1.01699,2.5300781 0,1.227832 -0.76895,2.1580077 -0.76894,0.9177735 -1.87275,1.153418 0,0.471289 0.35967,0.471289 0.63252,0 1.28984,-0.4960937 0.49609,0.3844727 0.60772,0.5208987 z m 13.98983,5.022949 q 0,0.892969 0.19843,1.438672 0.19844,0.545703 0.69454,0.855761 0.0124,0.06201 0.0124,0.235645 v 0.223242 q 0,1.761133 -1.0666,2.740918 -0.94258,0.868164 -2.33164,0.868164 -0.94258,0 -1.72393,-0.446484 -0.78135,-0.446485 -1.11621,-1.289844 -0.42168,0 -0.42168,0.409277 0,0.347266 0.43408,0.781348 -0.80615,0.545703 -2.43086,0.545703 -2.29443,0 -3.67109,-1.240234 -1.36426,-1.252637 -1.36426,-3.485059 0,-2.244824 1.45108,-3.472656 1.32705,-1.103809 3.43544,-1.103809 0.71934,0 1.38907,0.09922 0.44648,0.08682 0.48369,0.09922 0.0372,-0.124023 0.0372,-0.21084 0,-0.322461 -0.54571,-0.434082 -0.5457,-0.111621 -1.42627,-0.111621 -1.87275,0 -3.1998,0.756543 -0.60772,-1.029395 -0.60772,-2.6044922 0,-0.8929687 0.22325,-1.3270508 0.89296,-0.4092773 2.26962,-0.7193359 1.37666,-0.3224609 2.90215,-0.3224609 3.1502,0 4.7625,1.3766601 1.61231,1.3766597 1.61231,3.9067387 z m -6.43682,0.607715 q -0.5209,0 -0.5209,0.471289 0,0.446484 0.60772,0.446484 0.42168,0 0.62011,-0.198437 0.19844,-0.21084 0.19844,-0.719336 z m 8.81807,-0.458887 q 1.0542,-1.054199 2.51767,-1.054199 1.46348,0 2.54248,1.054199 1.0542,1.079004 1.0542,2.554883 0,1.463476 -1.0542,2.517676 -1.0666,1.041796 -2.54248,1.041796 -1.47588,0 -2.53007,-1.041796 -1.0418,-1.0542 -1.0418,-2.517676 0,-1.475879 1.0542,-2.554883 z m 13.54337,6.374805 q -3.22461,0 -5.14698,-1.984375 -1.90996,-1.996778 -1.90996,-5.34541 0,-3.348633 2.17041,-5.2958012 1.93477,-1.7363281 4.83692,-1.7363281 2.57968,0 4.2788,1.2774414 1.69913,1.2650391 1.69913,3.4478519 0,1.513086 -0.94258,2.468066 -0.93018,0.942578 -2.45567,0.942578 -1.24023,0 -2.07119,-0.657324 -0.81855,-0.669727 -0.96738,-1.736328 -0.5457,0 -0.5457,0.396875 0,0.905371 0.89297,1.661914 1.02939,0.892969 2.55488,0.892969 1.53789,0 2.54248,-0.657325 0.62012,0.954981 0.62012,2.319239 0,1.5875 -1.36426,2.716113 -1.5627,1.289844 -4.19199,1.289844 z m 12.93564,-7.292578 v 2.17041 q 0.0868,0.08682 0.28525,0.08682 0.19844,0 0.28526,-0.136426 0.0868,-0.136425 0.0868,-0.471289 v -1.773535 q 0,-1.190625 -0.0992,-1.575097 -0.0992,-0.396875 -0.37207,-0.396875 -0.17363,0 -0.29765,0.124023 0.11162,1.227832 0.11162,1.971973 z m -4.63848,5.494238 q -2.03398,-1.959571 -2.03398,-5.308203 0,-3.361035 1.90996,-5.295801 1.92236,-1.9471679 5.03535,-1.9471679 3.11299,0 5.03535,2.021582 1.90996,2.0215819 1.90996,5.2709959 0,3.237012 -1.84795,5.146973 -1.83554,1.909961 -4.99814,1.909961 -3.1626,0 -5.01055,-1.79834 z m 32.74218,-4.725293 q 0,0.905371 0.19844,1.475879 0.19844,0.570508 0.69453,0.880566 0.0124,0.06201 0.0124,0.21084 v 0.186035 q 0,1.699121 -0.99218,2.654102 -0.99219,0.95498 -2.56729,0.95498 -1.56269,0 -2.51768,-0.855762 -1.12861,-0.992187 -1.12861,-3.038574 v -3.91914 q 0,-0.830957 -0.5457,-0.830957 -0.21084,0 -0.33486,0.09922 l 0.22324,1.84795 v 2.802929 q 0,1.686719 0.5581,2.554883 -0.59531,0.63252 -1.48828,0.992188 -0.88056,0.347265 -1.79834,0.347265 -1.48828,0 -2.30683,-0.719336 -0.99219,-0.868164 -0.99219,-2.740918 V 13.69884 q 0,-0.830957 -0.5457,-0.830957 -0.21084,0 -0.33487,0.09922 l 0.22324,1.84795 v 3.286621 q 0,1.389062 0.37207,2.145605 -1.21543,1.252637 -3.41064,1.252637 -1.30225,0 -2.19521,-0.657324 -1.0294,-0.756543 -1.0294,-2.033985 v -5.92832 q -0.73174,-1.029395 -0.73174,-2.530078 0,-1.513086 0.73174,-2.6168946 h 2.98897 q 0.88056,0 1.50068,0.6573242 -0.5457,0.5084961 -0.5457,0.8433594 0,0.3844727 0.43408,0.3844727 0.5457,-0.9425782 1.50068,-1.5006836 1.11621,-0.6325195 2.6169,-0.6325195 1.14101,0 1.99677,0.4836914 0.86817,0.4836914 1.28985,1.1162109 0.58291,-0.79375 1.51308,-1.190625 0.94258,-0.4092773 1.95957,-0.4092773 2.24483,0 3.48506,1.3890624 1.21543,1.389063 1.21543,3.80752 z"
       id="text4"
       aria-label="Xalapalandia.com"
       inkscape:label="green outline" />
    <path
       style="font-size:25.4px;line-height:65%;font-family:Modak;-inkscape-font-specification:Modak;fill:none;stroke:#fbe281;stroke-width:3.68135;stroke-linecap:round;stroke-linejoin:round;stroke-dasharray:none;stroke-opacity:1;paint-order:stroke fill markers"
       d="m 11.339174,18.374523 -1.4386716,2.80293 c -0.6201172,0.23151 -1.2939779,0.347265 -2.021582,0.347265 -1.2815755,0 -2.3316406,-0.363802 -3.1501953,-1.091406 -0.8185547,-0.727604 -1.227832,-1.707389 -1.227832,-2.939355 0,-1.091407 0.3679362,-2.062924 1.1038086,-2.914551 0.7358724,-0.851627 1.7776693,-1.566829 3.1253906,-2.145605 -0.099219,-0.272852 -0.2687175,-0.409278 -0.5084961,-0.409278 -0.2397787,0 -0.6779948,0.219108 -1.3146484,0.657325 C 5.2868306,12.359387 4.7411275,11.826086 4.2698384,11.081945 3.8068176,10.337805 3.5753072,9.4779088 3.5753072,8.5022577 c 0,-0.975651 0.359668,-1.8107421 1.0790039,-2.5052734 0.7193359,-0.6945312 1.7115234,-1.0417968 2.9765624,-1.0417968 1.0914063,0 1.9885091,0.2025716 2.6913085,0.6077148 l 1.314648,2.6168945 1.066602,-2.6789062 c 0.702799,-0.3141927 1.488281,-0.4712891 2.356445,-0.4712891 1.231967,0 2.232422,0.3389974 3.001367,1.0169922 0.768945,0.6945313 1.153418,1.6660482 1.153418,2.9145507 0,1.0335284 -0.37207,2.0050456 -1.116211,2.9145506 -0.735872,0.901237 -1.682584,1.616439 -2.840136,2.145606 0.09095,0.239779 0.252181,0.359668 0.483691,0.359668 0.239779,0 0.624251,-0.181901 1.153418,-0.545704 l 2.554883,3.199805 c 0,1.331185 -0.330729,2.393652 -0.992188,3.187402 -0.727604,0.876433 -1.732194,1.314649 -3.013769,1.314649 -1.951302,0 -3.319694,-1.054199 -4.105176,-3.162598 z m 21.046777,-3.224609 c 0,0.595313 0.06615,1.07487 0.198437,1.438672 0.132292,0.363802 0.363802,0.649056 0.694531,0.855761 0.0083,0.04134 0.0124,0.119888 0.0124,0.235645 v 0.223242 c 0,1.174089 -0.355534,2.087728 -1.066602,2.740918 -0.628385,0.578776 -1.405599,0.868164 -2.33164,0.868164 -0.628385,0 -1.203027,-0.148828 -1.723926,-0.446484 -0.520899,-0.297657 -0.892969,-0.727605 -1.116211,-1.289844 -0.28112,0 -0.42168,0.136426 -0.42168,0.409277 0,0.231511 0.144694,0.49196 0.434082,0.781348 -0.537435,0.363802 -1.347721,0.545703 -2.430859,0.545703 -1.529623,0 -2.753321,-0.413411 -3.671094,-1.240234 -0.909505,-0.835091 -1.364257,-1.996778 -1.364257,-3.485059 0,-1.496549 0.483691,-2.654101 1.451074,-3.472656 0.8847,-0.735873 2.02985,-1.103809 3.435449,-1.103809 0.479557,0 0.942578,0.03307 1.389062,0.09922 0.297657,0.05788 0.458887,0.09095 0.483692,0.09922 0.02481,-0.08268 0.03721,-0.152962 0.03721,-0.21084 0,-0.214974 -0.181901,-0.359668 -0.545703,-0.434082 -0.363802,-0.07441 -0.839225,-0.111621 -1.42627,-0.111621 -1.248503,0 -2.315104,0.252181 -3.199804,0.756543 -0.405143,-0.686263 -0.607715,-1.554427 -0.607715,-2.6044922 0,-0.5953125 0.07441,-1.0376627 0.223242,-1.3270508 0.595313,-0.2728515 1.351856,-0.5126302 2.269629,-0.7193359 0.917773,-0.2149739 1.885156,-0.3224609 2.902148,-0.3224609 2.10013,0 3.68763,0.4588867 4.7625,1.3766601 1.07487,0.9177731 1.612305,2.2200197 1.612305,3.9067387 z m -6.436817,0.607715 c -0.347265,0 -0.520898,0.157096 -0.520898,0.471289 0,0.297656 0.202572,0.446484 0.607715,0.446484 0.28112,0 0.487826,-0.06615 0.620117,-0.198437 0.132292,-0.14056 0.198438,-0.380339 0.198438,-0.719336 z M 40.112611,6.3194453 v 8.7188477 c 0,1.231966 0.297656,2.033984 0.892969,2.406054 0.0083,0.04134 0.0124,0.119888 0.0124,0.235645 v 0.223242 c 0,1.182357 -0.30179,2.07946 -0.905371,2.691309 -0.595313,0.611849 -1.442806,0.917773 -2.54248,0.917773 -1.099675,0 -1.971973,-0.305924 -2.616895,-0.917773 -0.768945,-0.727605 -1.153418,-1.827279 -1.153418,-3.299024 V 4.4094844 c 0.868164,-0.5291667 1.860352,-0.79375 2.976563,-0.79375 1.124479,0 1.95957,0.2397786 2.505273,0.7193359 0.553971,0.4712891 0.830957,1.1327474 0.830957,1.984375 z m 13.989843,8.8304687 c 0,0.595313 0.06615,1.07487 0.198437,1.438672 0.132292,0.363802 0.363803,0.649056 0.694532,0.855761 0.0083,0.04134 0.0124,0.119888 0.0124,0.235645 v 0.223242 c 0,1.174089 -0.355534,2.087728 -1.066602,2.740918 -0.628385,0.578776 -1.405599,0.868164 -2.33164,0.868164 -0.628385,0 -1.203027,-0.148828 -1.723926,-0.446484 -0.520899,-0.297657 -0.892969,-0.727605 -1.116211,-1.289844 -0.28112,0 -0.42168,0.136426 -0.42168,0.409277 0,0.231511 0.144694,0.49196 0.434083,0.781348 -0.537435,0.363802 -1.347722,0.545703 -2.43086,0.545703 -1.529622,0 -2.75332,-0.413411 -3.671094,-1.240234 -0.909505,-0.835091 -1.364257,-1.996778 -1.364257,-3.485059 0,-1.496549 0.483691,-2.654101 1.451074,-3.472656 0.884701,-0.735873 2.02985,-1.103809 3.435449,-1.103809 0.479557,0 0.942578,0.03307 1.389063,0.09922 0.297656,0.05788 0.458886,0.09095 0.483691,0.09922 0.02481,-0.08268 0.03721,-0.152962 0.03721,-0.21084 0,-0.214974 -0.181901,-0.359668 -0.545703,-0.434082 -0.363802,-0.07441 -0.839225,-0.111621 -1.42627,-0.111621 -1.248503,0 -2.315104,0.252181 -3.199804,0.756543 -0.405143,-0.686263 -0.607715,-1.554427 -0.607715,-2.6044922 0,-0.5953125 0.07441,-1.0376627 0.223242,-1.3270508 0.595313,-0.2728515 1.351856,-0.5126302 2.269629,-0.7193359 0.917773,-0.2149739 1.885156,-0.3224609 2.902148,-0.3224609 2.100131,0 3.687631,0.4588867 4.7625,1.3766601 1.07487,0.9177731 1.612305,2.2200197 1.612305,3.9067387 z m -6.436816,0.607715 c -0.347266,0 -0.520899,0.157096 -0.520899,0.471289 0,0.297656 0.202572,0.446484 0.607715,0.446484 0.28112,0 0.487826,-0.06615 0.620117,-0.198437 0.132292,-0.14056 0.198438,-0.380339 0.198438,-0.719336 z m 14.374316,-1.165821 v 1.661914 c 0.05788,0.05788 0.152965,0.08682 0.285254,0.08682 0.132291,0 0.227376,-0.04547 0.285254,-0.136426 0.05788,-0.09095 0.08682,-0.248047 0.08682,-0.471289 v -1.265039 c 0,-0.79375 -0.03307,-1.318783 -0.09922,-1.575098 -0.06615,-0.264583 -0.19017,-0.396875 -0.37207,-0.396875 -0.115755,0 -0.214974,0.04134 -0.297656,0.124024 0.07441,0.818555 0.111621,1.475879 0.111621,1.971972 z M 58.083606,9.2463983 c 0,0.2480469 0.144694,0.3720704 0.434082,0.3720704 0.496094,-0.7772135 1.079004,-1.3518555 1.748731,-1.7239258 0.669727,-0.3803385 1.475879,-0.5705078 2.418457,-0.5705078 0.942578,0 1.802474,0.1488281 2.579687,0.4464844 1.066602,0.4216797 1.909961,1.0996744 2.530078,2.0339843 0.777214,1.1823572 1.165821,2.7326502 1.165821,4.6508792 0,2.158007 -0.578776,3.836458 -1.736328,5.035351 -1.149284,1.190625 -2.745052,1.785938 -4.787305,1.785938 -1.141015,0 -2.02985,-0.14056 -2.666504,-0.42168 -0.05788,0.03307 -0.08682,0.103353 -0.08682,0.21084 0,0.248047 0.190169,0.425814 0.570508,0.533301 0.388607,0.107487 1.054199,0.186035 1.996777,0.235644 V 25.1338 c -0.851628,0.380339 -1.785938,0.570508 -2.80293,0.570508 -1.198893,0 -2.104264,-0.219108 -2.716113,-0.657324 -0.694531,-0.471289 -1.041797,-1.194759 -1.041797,-2.17041 v -9.983887 c -0.487825,-0.686263 -0.731738,-1.53789 -0.731738,-2.554882 0,-0.4134117 0.06615,-0.8640304 0.198437,-1.3518559 0.132292,-0.4878255 0.310059,-0.905371 0.533301,-1.2526367 h 1.761133 c 0.719336,0 1.269173,0.099219 1.649512,0.2976563 -0.677995,0.5043619 -1.016993,0.9095051 -1.016993,1.2154296 z m 24.06055,5.9035157 c 0,0.595313 0.06615,1.07487 0.198438,1.438672 0.132291,0.363802 0.363802,0.649056 0.694531,0.855761 0.0083,0.04134 0.0124,0.119888 0.0124,0.235645 v 0.223242 c 0,1.174089 -0.355534,2.087728 -1.066601,2.740918 -0.628385,0.578776 -1.405599,0.868164 -2.331641,0.868164 -0.628385,0 -1.203027,-0.148828 -1.723926,-0.446484 -0.520898,-0.297657 -0.892968,-0.727605 -1.116211,-1.289844 -0.281119,0 -0.421679,0.136426 -0.421679,0.409277 0,0.231511 0.144694,0.49196 0.434082,0.781348 -0.537435,0.363802 -1.347722,0.545703 -2.43086,0.545703 -1.529622,0 -2.75332,-0.413411 -3.671093,-1.240234 -0.909505,-0.835091 -1.364258,-1.996778 -1.364258,-3.485059 0,-1.496549 0.483691,-2.654101 1.451074,-3.472656 0.884701,-0.735873 2.02985,-1.103809 3.435449,-1.103809 0.479557,0 0.942578,0.03307 1.389063,0.09922 0.297656,0.05788 0.458886,0.09095 0.483691,0.09922 0.02481,-0.08268 0.03721,-0.152962 0.03721,-0.21084 0,-0.214974 -0.181901,-0.359668 -0.545703,-0.434082 -0.363802,-0.07441 -0.839225,-0.111621 -1.426269,-0.111621 -1.248503,0 -2.315104,0.252181 -3.199805,0.756543 -0.405143,-0.686263 -0.607715,-1.554427 -0.607715,-2.6044922 0,-0.5953125 0.07441,-1.0376627 0.223242,-1.3270508 0.595313,-0.2728515 1.351856,-0.5126302 2.269629,-0.7193359 0.917773,-0.2149739 1.885156,-0.3224609 2.902149,-0.3224609 2.10013,0 3.68763,0.4588867 4.7625,1.3766601 1.074869,0.9177731 1.612304,2.2200197 1.612304,3.9067387 z m -6.436816,0.607715 c -0.347266,0 -0.520899,0.157096 -0.520899,0.471289 0,0.297656 0.202572,0.446484 0.607715,0.446484 0.28112,0 0.487826,-0.06615 0.620117,-0.198437 0.132292,-0.14056 0.198438,-0.380339 0.198438,-0.719336 z M 89.870816,6.3194453 v 8.7188477 c 0,1.231966 0.297656,2.033984 0.892969,2.406054 0.0083,0.04134 0.0124,0.119888 0.0124,0.235645 v 0.223242 c 0,1.182357 -0.30179,2.07946 -0.905371,2.691309 -0.595312,0.611849 -1.442805,0.917773 -2.54248,0.917773 -1.099675,0 -1.971973,-0.305924 -2.616895,-0.917773 -0.768945,-0.727605 -1.153417,-1.827279 -1.153417,-3.299024 V 4.4094844 c 0.868164,-0.5291667 1.860351,-0.79375 2.976562,-0.79375 1.124479,0 1.95957,0.2397786 2.505273,0.7193359 0.553971,0.4712891 0.830957,1.1327474 0.830957,1.984375 z m 13.989844,8.8304687 c 0,0.595313 0.0661,1.07487 0.19843,1.438672 0.13229,0.363802 0.3638,0.649056 0.69453,0.855761 0.008,0.04134 0.0124,0.119888 0.0124,0.235645 v 0.223242 c 0,1.174089 -0.35553,2.087728 -1.0666,2.740918 -0.62839,0.578776 -1.4056,0.868164 -2.33165,0.868164 -0.62838,0 -1.20302,-0.148828 -1.723921,-0.446484 -0.520899,-0.297657 -0.892969,-0.727605 -1.116211,-1.289844 -0.28112,0 -0.42168,0.136426 -0.42168,0.409277 0,0.231511 0.144694,0.49196 0.434082,0.781348 -0.537435,0.363802 -1.347721,0.545703 -2.430859,0.545703 -1.529623,0 -2.753321,-0.413411 -3.671094,-1.240234 -0.909505,-0.835091 -1.364258,-1.996778 -1.364258,-3.485059 0,-1.496549 0.483691,-2.654101 1.451074,-3.472656 0.884701,-0.735873 2.029851,-1.103809 3.43545,-1.103809 0.479557,0 0.942578,0.03307 1.389062,0.09922 0.297656,0.05788 0.458887,0.09095 0.483692,0.09922 0.02481,-0.08268 0.03721,-0.152962 0.03721,-0.21084 0,-0.214974 -0.181901,-0.359668 -0.545704,-0.434082 -0.363802,-0.07441 -0.839225,-0.111621 -1.426269,-0.111621 -1.248503,0 -2.315104,0.252181 -3.199805,0.756543 -0.405143,-0.686263 -0.607715,-1.554427 -0.607715,-2.6044922 0,-0.5953125 0.07441,-1.0376627 0.223243,-1.3270508 0.595312,-0.2728515 1.351855,-0.5126302 2.269629,-0.7193359 0.917773,-0.2149739 1.885156,-0.3224609 2.902148,-0.3224609 2.100131,0 3.687626,0.4588867 4.762496,1.3766601 1.07487,0.9177731 1.61231,2.2200197 1.61231,3.9067387 z m -6.436821,0.607715 c -0.347265,0 -0.520898,0.157096 -0.520898,0.471289 0,0.297656 0.202572,0.446484 0.607715,0.446484 0.281119,0 0.487825,-0.06615 0.620117,-0.198437 0.132291,-0.14056 0.198437,-0.380339 0.198437,-0.719336 z M 118.3962,15.149914 c 0,0.595313 0.0662,1.07487 0.19844,1.438672 0.13229,0.363802 0.3638,0.649056 0.69453,0.855761 0.008,0.04134 0.0124,0.119888 0.0124,0.235645 v 0.223242 c 0,1.141016 -0.33073,2.029851 -0.99218,2.666504 -0.65319,0.628385 -1.50069,0.942578 -2.54248,0.942578 -1.03353,0 -1.87276,-0.293522 -2.51768,-0.880566 -0.75241,-0.669727 -1.12861,-1.686719 -1.12861,-3.050977 0,-0.578776 0.0248,-1.087272 0.0744,-1.525488 0.0579,-0.446485 0.0951,-0.764811 0.11162,-0.95498 0.0248,-0.190169 0.0496,-0.367936 0.0744,-0.533301 0.0248,-0.165365 0.0372,-0.409278 0.0372,-0.731739 0,-0.322461 -0.0455,-0.553971 -0.13642,-0.694531 -0.0827,-0.14056 -0.20258,-0.21084 -0.35967,-0.21084 -0.14883,0 -0.28112,0.03307 -0.39688,0.09922 l 0.16123,2.021582 c -0.14883,0.835091 -0.22324,1.719792 -0.22324,2.654102 0,0.934309 0.21084,1.785937 0.63252,2.554882 -0.81029,0.835091 -1.94717,1.252637 -3.41064,1.252637 -0.83509,0 -1.55856,-0.219108 -2.17041,-0.657324 -0.71107,-0.496094 -1.0666,-1.153418 -1.0666,-1.971973 v -6.002734 c -0.48783,-0.686263 -0.73174,-1.529623 -0.73174,-2.530078 0,-1.008724 0.24391,-1.8810222 0.73174,-2.6168946 h 2.20761 c 0.58705,0 1.08728,0.2191081 1.50069,0.6573242 -0.36381,0.3389974 -0.54571,0.6201172 -0.54571,0.8433594 0,0.2563151 0.1447,0.3844727 0.43409,0.3844727 0.3638,-0.6283855 0.91777,-1.1492839 1.66191,-1.5626953 0.75241,-0.4134115 1.60403,-0.6201172 2.55488,-0.6201172 1.43041,0 2.59209,0.3513997 3.48506,1.0541992 1.12448,0.8847005 1.68672,2.2572266 1.68672,4.1175776 z m 8.27237,-2.654102 c -0.0827,-0.08268 -0.18191,-0.124023 -0.29766,-0.124023 -0.1819,0 -0.30592,0.132292 -0.37207,0.396875 -0.0661,0.256315 -0.0992,0.781348 -0.0992,1.575098 v 1.265039 c 0,0.223242 0.0289,0.380338 0.0868,0.471289 0.0579,0.09095 0.15295,0.136425 0.28525,0.136425 0.13229,0 0.22738,-0.02894 0.28525,-0.08682 v -1.661914 c 0,-0.810287 0.0372,-1.467611 0.11163,-1.971973 z M 125.7756,5.1660273 c 0.43821,-0.5126302 0.9219,-0.8971028 1.45107,-1.1534179 0.52917,-0.2645833 1.20303,-0.396875 2.02158,-0.396875 0.99219,0 1.79834,0.2769857 2.41846,0.830957 0.63665,0.5953125 0.95498,1.3973307 0.95498,2.4060546 v 8.185547 c 0,1.231966 0.29766,2.033984 0.89297,2.406054 0.008,0.04134 0.0124,0.119888 0.0124,0.235645 v 0.223242 c 0,1.174089 -0.35553,2.087728 -1.0666,2.740918 -0.62839,0.578776 -1.4056,0.868164 -2.33164,0.868164 -0.64492,0 -1.20303,-0.136426 -1.67432,-0.409277 -0.55397,-0.314193 -0.94257,-0.744141 -1.16582,-1.289844 -0.28112,0 -0.42168,0.136426 -0.42168,0.409277 0,0.124024 0.0455,0.268718 0.13643,0.434082 0.0992,0.157097 0.23151,0.297657 0.39687,0.42168 -0.48782,0.289388 -1.12034,0.434082 -1.89755,0.434082 -1.05007,0 -2.03399,-0.239779 -2.95176,-0.719336 -0.90951,-0.487825 -1.63298,-1.219564 -2.17041,-2.195215 -0.62012,-1.116211 -0.93018,-2.468066 -0.93018,-4.055566 0,-2.116667 0.59118,-3.778581 1.77354,-4.9857421 1.19062,-1.2071614 2.70784,-1.8107421 4.55166,-1.8107421 1.09141,0 2.04225,0.2067057 2.85254,0.6201172 0.0909,-0.09095 0.13642,-0.1860352 0.13642,-0.285254 0,-0.2480469 -0.29352,-0.4588867 -0.88056,-0.6325195 -0.58705,-0.1736328 -1.17823,-0.2604492 -1.77354,-0.2604492 0,-0.8433593 -0.11162,-1.51722 -0.33486,-2.021582 z m 14.67198,4.9609377 v 4.911328 c 0,1.231966 0.29765,2.033984 0.89296,2.406054 0.008,0.04134 0.0124,0.119888 0.0124,0.235645 v 0.223242 c 0,1.21543 -0.33073,2.129069 -0.99219,2.740918 -0.61185,0.578776 -1.4304,0.868164 -2.45566,0.868164 -1.01699,0 -1.85622,-0.289388 -2.51768,-0.868164 -0.83509,-0.735872 -1.25264,-1.810742 -1.25264,-3.224609 V 9.3580194 c 0.14883,-0.1074869 0.31006,-0.1943033 0.48369,-0.2604492 0.17363,-0.066146 0.35554,-0.1488283 0.54571,-0.2480469 -0.35553,-0.181901 -0.678,-0.4960937 -0.96739,-0.9425781 -0.28939,-0.4547526 -0.43408,-0.9839192 -0.43408,-1.5874999 0,-1.0417969 0.34313,-1.8934245 1.0294,-2.5548828 0.68626,-0.6614583 1.52548,-0.9921875 2.51767,-0.9921875 1.00046,0 1.83555,0.3389974 2.50528,1.0169922 0.67799,0.6697265 1.01699,1.5130859 1.01699,2.5300781 0,0.8185547 -0.25632,1.5378906 -0.76895,2.1580077 -0.51263,0.611849 -1.13688,0.9963217 -1.87275,1.153418 0,0.3141927 0.11989,0.471289 0.35967,0.471289 0.42168,0 0.85163,-0.1653646 1.28984,-0.4960937 0.33073,0.2563151 0.5333,0.4299477 0.60772,0.5208987 z m 13.98983,5.022949 c 0,0.595313 0.0661,1.07487 0.19843,1.438672 0.13229,0.363802 0.36381,0.649056 0.69454,0.855761 0.008,0.04134 0.0124,0.119888 0.0124,0.235645 v 0.223242 c 0,1.174089 -0.35553,2.087728 -1.0666,2.740918 -0.62839,0.578776 -1.4056,0.868164 -2.33164,0.868164 -0.62839,0 -1.20303,-0.148828 -1.72393,-0.446484 -0.5209,-0.297657 -0.89297,-0.727605 -1.11621,-1.289844 -0.28112,0 -0.42168,0.136426 -0.42168,0.409277 0,0.231511 0.14469,0.49196 0.43408,0.781348 -0.53743,0.363802 -1.34772,0.545703 -2.43086,0.545703 -1.52962,0 -2.75332,-0.413411 -3.67109,-1.240234 -0.90951,-0.835091 -1.36426,-1.996778 -1.36426,-3.485059 0,-1.496549 0.48369,-2.654101 1.45108,-3.472656 0.8847,-0.735873 2.02985,-1.103809 3.43544,-1.103809 0.47956,0 0.94258,0.03307 1.38907,0.09922 0.29765,0.05788 0.45888,0.09095 0.48369,0.09922 0.0248,-0.08268 0.0372,-0.152962 0.0372,-0.21084 0,-0.214974 -0.1819,-0.359668 -0.54571,-0.434082 -0.3638,-0.07441 -0.83922,-0.111621 -1.42627,-0.111621 -1.2485,0 -2.3151,0.252181 -3.1998,0.756543 -0.40515,-0.686263 -0.60772,-1.554427 -0.60772,-2.6044922 0,-0.5953125 0.0744,-1.0376627 0.22325,-1.3270508 0.59531,-0.2728515 1.35185,-0.5126302 2.26962,-0.7193359 0.91777,-0.2149739 1.88516,-0.3224609 2.90215,-0.3224609 2.10013,0 3.68763,0.4588867 4.7625,1.3766601 1.07487,0.9177731 1.61231,2.2200197 1.61231,3.9067387 z m -6.43682,0.607715 c -0.34727,0 -0.5209,0.157096 -0.5209,0.471289 0,0.297656 0.20257,0.446484 0.60772,0.446484 0.28112,0 0.48782,-0.06615 0.62011,-0.198437 0.13229,-0.14056 0.19844,-0.380339 0.19844,-0.719336 z m 8.81807,-0.458887 c 0.7028,-0.702799 1.54202,-1.054199 2.51767,-1.054199 0.97565,0 1.82315,0.3514 2.54248,1.054199 0.7028,0.719336 1.0542,1.570964 1.0542,2.554883 0,0.975651 -0.3514,1.814876 -1.0542,2.517676 -0.71107,0.694531 -1.55856,1.041796 -2.54248,1.041796 -0.98392,0 -1.82728,-0.347265 -2.53007,-1.041796 -0.69453,-0.7028 -1.0418,-1.542025 -1.0418,-2.517676 0,-0.983919 0.3514,-1.835547 1.0542,-2.554883 z m 13.54337,6.374805 c -2.14974,0 -3.8654,-0.661458 -5.14698,-1.984375 -1.27331,-1.331185 -1.90996,-3.112989 -1.90996,-5.34541 0,-2.232422 0.72347,-3.997689 2.17041,-5.2958012 1.28985,-1.1575521 2.90215,-1.7363281 4.83692,-1.7363281 1.71979,0 3.14605,0.4258138 4.2788,1.2774414 1.13275,0.8433594 1.69913,1.9926429 1.69913,3.4478519 0,1.008724 -0.31419,1.831413 -0.94258,2.468066 -0.62012,0.628385 -1.43868,0.942578 -2.45567,0.942578 -0.82682,0 -1.51722,-0.219108 -2.07119,-0.657324 -0.5457,-0.446485 -0.86816,-1.025261 -0.96738,-1.736328 -0.3638,0 -0.5457,0.132292 -0.5457,0.396875 0,0.603581 0.29766,1.157552 0.89297,1.661914 0.68626,0.595313 1.53789,0.892969 2.55488,0.892969 1.02526,0 1.87275,-0.219108 2.54248,-0.657325 0.41341,0.636654 0.62012,1.409734 0.62012,2.319239 0,1.058333 -0.45475,1.963704 -1.36426,2.716113 -1.0418,0.859896 -2.43913,1.289844 -4.19199,1.289844 z m 12.93564,-7.292578 v 2.17041 c 0.0579,0.05788 0.15295,0.08682 0.28525,0.08682 0.13229,0 0.22738,-0.04547 0.28526,-0.136426 0.0579,-0.09095 0.0868,-0.248046 0.0868,-0.471289 v -1.773535 c 0,-0.79375 -0.0331,-1.318782 -0.0992,-1.575097 -0.0661,-0.264583 -0.19016,-0.396875 -0.37207,-0.396875 -0.11575,0 -0.21497,0.04134 -0.29765,0.124023 0.0744,0.818555 0.11162,1.475879 0.11162,1.971973 z m -4.63848,5.494238 c -1.35599,-1.306381 -2.03398,-3.075782 -2.03398,-5.308203 0,-2.24069 0.63665,-4.005957 1.90996,-5.295801 1.28157,-1.2981119 2.96002,-1.9471679 5.03535,-1.9471679 2.07533,0 3.75378,0.6738607 5.03535,2.021582 1.27331,1.3477209 1.90996,3.1047199 1.90996,5.2709959 0,2.158008 -0.61598,3.873666 -1.84795,5.146973 -1.22369,1.273307 -2.88974,1.909961 -4.99814,1.909961 -2.1084,0 -3.77858,-0.599447 -5.01055,-1.79834 z m 32.74218,-4.725293 c 0,0.603581 0.0662,1.09554 0.19844,1.475879 0.13229,0.380339 0.3638,0.673861 0.69453,0.880566 0.008,0.04134 0.0124,0.11162 0.0124,0.21084 v 0.186035 c 0,1.132747 -0.33073,2.017448 -0.99218,2.654102 -0.66146,0.636653 -1.51722,0.95498 -2.56729,0.95498 -1.04179,0 -1.88102,-0.285254 -2.51768,-0.855762 -0.75241,-0.661458 -1.12861,-1.674316 -1.12861,-3.038574 v -3.91914 c 0,-0.553971 -0.1819,-0.830957 -0.5457,-0.830957 -0.14056,0 -0.25218,0.03307 -0.33486,0.09922 l 0.22324,1.84795 v 2.802929 c 0,1.124479 0.18603,1.976107 0.5581,2.554883 -0.39687,0.42168 -0.89297,0.752409 -1.48828,0.992188 -0.58704,0.23151 -1.18649,0.347265 -1.79834,0.347265 -0.99219,0 -1.76113,-0.239779 -2.30683,-0.719336 -0.66146,-0.578776 -0.99219,-1.492415 -0.99219,-2.740918 V 13.69884 c 0,-0.553971 -0.1819,-0.830957 -0.5457,-0.830957 -0.14056,0 -0.25218,0.03307 -0.33487,0.09922 l 0.22324,1.84795 v 3.286621 c 0,0.926041 0.12402,1.641243 0.37207,2.145605 -0.81029,0.835091 -1.94717,1.252637 -3.41064,1.252637 -0.86817,0 -1.5999,-0.219108 -2.19521,-0.657324 -0.68627,-0.504362 -1.0294,-1.182357 -1.0294,-2.033985 v -5.92832 c -0.48783,-0.686263 -0.73174,-1.529623 -0.73174,-2.530078 0,-1.008724 0.24391,-1.8810222 0.73174,-2.6168946 h 2.98897 c 0.58704,0 1.08727,0.2191081 1.50068,0.6573242 -0.3638,0.3389974 -0.5457,0.6201172 -0.5457,0.8433594 0,0.2563151 0.14469,0.3844727 0.43408,0.3844727 0.3638,-0.6283855 0.86403,-1.1286133 1.50068,-1.5006836 0.74414,-0.4216797 1.61644,-0.6325195 2.6169,-0.6325195 0.76067,0 1.42626,0.1612305 1.99677,0.4836914 0.57878,0.3224609 1.00873,0.6945312 1.28985,1.1162109 0.38861,-0.5291667 0.89297,-0.9260417 1.51308,-1.190625 0.62839,-0.2728515 1.28158,-0.4092773 1.95957,-0.4092773 1.49655,0 2.65824,0.4630208 3.48506,1.3890624 0.81029,0.926042 1.21543,2.195215 1.21543,3.80752 z"
       id="text5"
       aria-label="Xalapalandia.com"
       inkscape:label="text yellow outline"
       sodipodi:nodetypes="ccsssscsccssscccscsccscccscsscsscsscscscscsccssscsccsssssssccscscsscscscscscsscsscsscscscscsccssscsccsssssssccsccsssscscscsccsccscscscccscscsscscsssscsscsscscscscsccssscsccsssssssccscscsscscscscscsscsscsscscscscsccssscsccsssssssccscscsscscsccsscsccscscscscscsccscccsscsssscsssccscsscsscsccsccsccscscsscccscsscscscsccssscsccscscsscsscsscscscscsccssscsccsssssssccscscscscscscscscscsccscscscsccsssscscsccscscscsccscsssscsssccsccscsssccscscscscscsccscccsccc" />
    <path
       style="font-size:25.4px;line-height:65%;font-family:Modak;-inkscape-font-specification:Modak;fill:#358757;stroke:none;stroke-width:3.68135;stroke-linecap:round;stroke-linejoin:round;stroke-dasharray:none;stroke-opacity:1;paint-order:stroke fill markers"
       d="m 11.339174,18.374523 -1.4386716,2.80293 c -0.6201172,0.23151 -1.2939779,0.347265 -2.021582,0.347265 -1.2815755,0 -2.3316406,-0.363802 -3.1501953,-1.091406 -0.8185547,-0.727604 -1.227832,-1.707389 -1.227832,-2.939355 0,-1.091407 0.3679362,-2.062924 1.1038086,-2.914551 0.7358724,-0.851627 1.7776693,-1.566829 3.1253906,-2.145605 -0.099219,-0.272852 -0.2687175,-0.409278 -0.5084961,-0.409278 -0.2397787,0 -0.6779948,0.219108 -1.3146484,0.657325 C 5.2868306,12.359387 4.7411275,11.826086 4.2698384,11.081945 3.8068176,10.337805 3.5753072,9.4779088 3.5753072,8.5022577 c 0,-0.975651 0.359668,-1.8107421 1.0790039,-2.5052734 0.7193359,-0.6945312 1.7115234,-1.0417968 2.9765624,-1.0417968 1.0914063,0 1.9885091,0.2025716 2.6913085,0.6077148 l 1.314648,2.6168945 1.066602,-2.6789062 c 0.702799,-0.3141927 1.488281,-0.4712891 2.356445,-0.4712891 1.231967,0 2.232422,0.3389974 3.001367,1.0169922 0.768945,0.6945313 1.153418,1.6660482 1.153418,2.9145507 0,1.0335284 -0.37207,2.0050456 -1.116211,2.9145506 -0.735872,0.901237 -1.682584,1.616439 -2.840136,2.145606 0.09095,0.239779 0.252181,0.359668 0.483691,0.359668 0.239779,0 0.624251,-0.181901 1.153418,-0.545704 l 2.554883,3.199805 c 0,1.331185 -0.330729,2.393652 -0.992188,3.187402 -0.727604,0.876433 -1.732194,1.314649 -3.013769,1.314649 -1.951302,0 -3.319694,-1.054199 -4.105176,-3.162598 z m 21.046777,-3.224609 c 0,0.595313 0.06615,1.07487 0.198437,1.438672 0.132292,0.363802 0.363802,0.649056 0.694531,0.855761 0.0083,0.04134 0.0124,0.119888 0.0124,0.235645 v 0.223242 c 0,1.174089 -0.355534,2.087728 -1.066602,2.740918 -0.628385,0.578776 -1.405599,0.868164 -2.33164,0.868164 -0.628385,0 -1.203027,-0.148828 -1.723926,-0.446484 -0.520899,-0.297657 -0.892969,-0.727605 -1.116211,-1.289844 -0.28112,0 -0.42168,0.136426 -0.42168,0.409277 0,0.231511 0.144694,0.49196 0.434082,0.781348 -0.537435,0.363802 -1.347721,0.545703 -2.430859,0.545703 -1.529623,0 -2.753321,-0.413411 -3.671094,-1.240234 -0.909505,-0.835091 -1.364257,-1.996778 -1.364257,-3.485059 0,-1.496549 0.483691,-2.654101 1.451074,-3.472656 0.8847,-0.735873 2.02985,-1.103809 3.435449,-1.103809 0.479557,0 0.942578,0.03307 1.389062,0.09922 0.297657,0.05788 0.458887,0.09095 0.483692,0.09922 0.02481,-0.08268 0.03721,-0.152962 0.03721,-0.21084 0,-0.214974 -0.181901,-0.359668 -0.545703,-0.434082 -0.363802,-0.07441 -0.839225,-0.111621 -1.42627,-0.111621 -1.248503,0 -2.315104,0.252181 -3.199804,0.756543 -0.405143,-0.686263 -0.607715,-1.554427 -0.607715,-2.6044922 0,-0.5953125 0.07441,-1.0376627 0.223242,-1.3270508 0.595313,-0.2728515 1.351856,-0.5126302 2.269629,-0.7193359 0.917773,-0.2149739 1.885156,-0.3224609 2.902148,-0.3224609 2.10013,0 3.68763,0.4588867 4.7625,1.3766601 1.07487,0.9177731 1.612305,2.2200197 1.612305,3.9067387 z m -6.436817,0.607715 c -0.347265,0 -0.520898,0.157096 -0.520898,0.471289 0,0.297656 0.202572,0.446484 0.607715,0.446484 0.28112,0 0.487826,-0.06615 0.620117,-0.198437 0.132292,-0.14056 0.198438,-0.380339 0.198438,-0.719336 z M 40.112611,6.3194453 v 8.7188477 c 0,1.231966 0.297656,2.033984 0.892969,2.406054 0.0083,0.04134 0.0124,0.119888 0.0124,0.235645 v 0.223242 c 0,1.182357 -0.30179,2.07946 -0.905371,2.691309 -0.595313,0.611849 -1.442806,0.917773 -2.54248,0.917773 -1.099675,0 -1.971973,-0.305924 -2.616895,-0.917773 -0.768945,-0.727605 -1.153418,-1.827279 -1.153418,-3.299024 V 4.4094844 c 0.868164,-0.5291667 1.860352,-0.79375 2.976563,-0.79375 1.124479,0 1.95957,0.2397786 2.505273,0.7193359 0.553971,0.4712891 0.830957,1.1327474 0.830957,1.984375 z m 13.989843,8.8304687 c 0,0.595313 0.06615,1.07487 0.198437,1.438672 0.132292,0.363802 0.363803,0.649056 0.694532,0.855761 0.0083,0.04134 0.0124,0.119888 0.0124,0.235645 v 0.223242 c 0,1.174089 -0.355534,2.087728 -1.066602,2.740918 -0.628385,0.578776 -1.405599,0.868164 -2.33164,0.868164 -0.628385,0 -1.203027,-0.148828 -1.723926,-0.446484 -0.520899,-0.297657 -0.892969,-0.727605 -1.116211,-1.289844 -0.28112,0 -0.42168,0.136426 -0.42168,0.409277 0,0.231511 0.144694,0.49196 0.434083,0.781348 -0.537435,0.363802 -1.347722,0.545703 -2.43086,0.545703 -1.529622,0 -2.75332,-0.413411 -3.671094,-1.240234 -0.909505,-0.835091 -1.364257,-1.996778 -1.364257,-3.485059 0,-1.496549 0.483691,-2.654101 1.451074,-3.472656 0.884701,-0.735873 2.02985,-1.103809 3.435449,-1.103809 0.479557,0 0.942578,0.03307 1.389063,0.09922 0.297656,0.05788 0.458886,0.09095 0.483691,0.09922 0.02481,-0.08268 0.03721,-0.152962 0.03721,-0.21084 0,-0.214974 -0.181901,-0.359668 -0.545703,-0.434082 -0.363802,-0.07441 -0.839225,-0.111621 -1.42627,-0.111621 -1.248503,0 -2.315104,0.252181 -3.199804,0.756543 -0.405143,-0.686263 -0.607715,-1.554427 -0.607715,-2.6044922 0,-0.5953125 0.07441,-1.0376627 0.223242,-1.3270508 0.595313,-0.2728515 1.351856,-0.5126302 2.269629,-0.7193359 0.917773,-0.2149739 1.885156,-0.3224609 2.902148,-0.3224609 2.100131,0 3.687631,0.4588867 4.7625,1.3766601 1.07487,0.9177731 1.612305,2.2200197 1.612305,3.9067387 z m -6.436816,0.607715 c -0.347266,0 -0.520899,0.157096 -0.520899,0.471289 0,0.297656 0.202572,0.446484 0.607715,0.446484 0.28112,0 0.487826,-0.06615 0.620117,-0.198437 0.132292,-0.14056 0.198438,-0.380339 0.198438,-0.719336 z m 14.374316,-1.165821 v 1.661914 c 0.05788,0.05788 0.152965,0.08682 0.285254,0.08682 0.132291,0 0.227376,-0.04547 0.285254,-0.136426 0.05788,-0.09095 0.08682,-0.248047 0.08682,-0.471289 v -1.265039 c 0,-0.79375 -0.03307,-1.318783 -0.09922,-1.575098 -0.06615,-0.264583 -0.19017,-0.396875 -0.37207,-0.396875 -0.115755,0 -0.214974,0.04134 -0.297656,0.124024 0.07441,0.818555 0.111621,1.475879 0.111621,1.971972 z M 58.083606,9.2463983 c 0,0.2480469 0.144694,0.3720704 0.434082,0.3720704 0.496094,-0.7772135 1.079004,-1.3518555 1.748731,-1.7239258 0.669727,-0.3803385 1.475879,-0.5705078 2.418457,-0.5705078 0.942578,0 1.802474,0.1488281 2.579687,0.4464844 1.066602,0.4216797 1.909961,1.0996744 2.530078,2.0339843 0.777214,1.1823572 1.165821,2.7326502 1.165821,4.6508792 0,2.158007 -0.578776,3.836458 -1.736328,5.035351 -1.149284,1.190625 -2.745052,1.785938 -4.787305,1.785938 -1.141015,0 -2.02985,-0.14056 -2.666504,-0.42168 -0.05788,0.03307 -0.08682,0.103353 -0.08682,0.21084 0,0.248047 0.190169,0.425814 0.570508,0.533301 0.388607,0.107487 1.054199,0.186035 1.996777,0.235644 V 25.1338 c -0.851628,0.380339 -1.785938,0.570508 -2.80293,0.570508 -1.198893,0 -2.104264,-0.219108 -2.716113,-0.657324 -0.694531,-0.471289 -1.041797,-1.194759 -1.041797,-2.17041 v -9.983887 c -0.487825,-0.686263 -0.731738,-1.53789 -0.731738,-2.554882 0,-0.4134117 0.06615,-0.8640304 0.198437,-1.3518559 0.132292,-0.4878255 0.310059,-0.905371 0.533301,-1.2526367 h 1.761133 c 0.719336,0 1.269173,0.099219 1.649512,0.2976563 -0.677995,0.5043619 -1.016993,0.9095051 -1.016993,1.2154296 z m 24.06055,5.9035157 c 0,0.595313 0.06615,1.07487 0.198438,1.438672 0.132291,0.363802 0.363802,0.649056 0.694531,0.855761 0.0083,0.04134 0.0124,0.119888 0.0124,0.235645 v 0.223242 c 0,1.174089 -0.355534,2.087728 -1.066601,2.740918 -0.628385,0.578776 -1.405599,0.868164 -2.331641,0.868164 -0.628385,0 -1.203027,-0.148828 -1.723926,-0.446484 -0.520898,-0.297657 -0.892968,-0.727605 -1.116211,-1.289844 -0.281119,0 -0.421679,0.136426 -0.421679,0.409277 0,0.231511 0.144694,0.49196 0.434082,0.781348 -0.537435,0.363802 -1.347722,0.545703 -2.43086,0.545703 -1.529622,0 -2.75332,-0.413411 -3.671093,-1.240234 -0.909505,-0.835091 -1.364258,-1.996778 -1.364258,-3.485059 0,-1.496549 0.483691,-2.654101 1.451074,-3.472656 0.884701,-0.735873 2.02985,-1.103809 3.435449,-1.103809 0.479557,0 0.942578,0.03307 1.389063,0.09922 0.297656,0.05788 0.458886,0.09095 0.483691,0.09922 0.02481,-0.08268 0.03721,-0.152962 0.03721,-0.21084 0,-0.214974 -0.181901,-0.359668 -0.545703,-0.434082 -0.363802,-0.07441 -0.839225,-0.111621 -1.426269,-0.111621 -1.248503,0 -2.315104,0.252181 -3.199805,0.756543 -0.405143,-0.686263 -0.607715,-1.554427 -0.607715,-2.6044922 0,-0.5953125 0.07441,-1.0376627 0.223242,-1.3270508 0.595313,-0.2728515 1.351856,-0.5126302 2.269629,-0.7193359 0.917773,-0.2149739 1.885156,-0.3224609 2.902149,-0.3224609 2.10013,0 3.68763,0.4588867 4.7625,1.3766601 1.074869,0.9177731 1.612304,2.2200197 1.612304,3.9067387 z m -6.436816,0.607715 c -0.347266,0 -0.520899,0.157096 -0.520899,0.471289 0,0.297656 0.202572,0.446484 0.607715,0.446484 0.28112,0 0.487826,-0.06615 0.620117,-0.198437 0.132292,-0.14056 0.198438,-0.380339 0.198438,-0.719336 z"
       id="path1"
       aria-label="Xalapalandia.com"
       inkscape:label="xalapa"
       sodipodi:nodetypes="ccsssscsccssscccscsccscccscsscsscsscscscscsccssscsccsssssssccscscsscscscscscsscsscsscscscscsccssscsccsssssssccsccsssscscscsccsccscscscccscscsscscsssscsscsscscscscsccssscsccsssssssccs" />
    <path
       d="m 90.715304,6.3802559 v 8.3551381 c 0,1.180574 0.285239,1.949136 0.855718,2.305685 0.008,0.03961 0.01188,0.114887 0.01188,0.225815 v 0.213929 c 0,1.133035 -0.289201,1.992715 -0.867603,2.579041 -0.570479,0.586325 -1.382618,0.879487 -2.43642,0.879487 -1.053802,0 -1.889711,-0.293162 -2.50773,-0.879487 C 85.03428,19.362611 84.665847,18.30881 84.665847,16.898459 V 4.5499696 c 0.831948,-0.5070924 1.782746,-0.7606385 2.852394,-0.7606385 1.077571,0 1.877826,0.2297762 2.400764,0.6893286 0.530862,0.4516292 0.796294,1.0854945 0.796294,1.9015962 z m 13.406246,8.4621031 c 0,0.570479 0.0633,1.030031 0.19016,1.378657 0.12677,0.348626 0.34862,0.621981 0.66555,0.820063 0.008,0.03961 0.0119,0.114887 0.0119,0.225815 v 0.213929 c 0,1.125112 -0.3407,2.000638 -1.0221,2.62658 -0.60218,0.554632 -1.34697,0.831948 -2.23439,0.831948 -0.60216,0 -1.15283,-0.142619 -1.652,-0.427858 -0.499171,-0.28524 -0.85572,-0.697253 -1.069649,-1.236038 -0.269393,0 -0.40409,0.130735 -0.40409,0.392204 0,0.221853 0.138659,0.471438 0.415975,0.748754 -0.515016,0.348626 -1.291501,0.522938 -2.329455,0.522938 -1.465815,0 -2.638466,-0.396165 -3.517954,-1.188497 -0.871564,-0.800255 -1.307347,-1.913482 -1.307347,-3.339679 0,-1.43412 0.463513,-2.543384 1.390542,-3.327793 0.847795,-0.705176 1.945175,-1.057763 3.292139,-1.057763 0.459552,0 0.903258,0.03169 1.331117,0.09508 0.285239,0.05546 0.439744,0.08716 0.463515,0.09508 0.02378,-0.07923 0.03566,-0.146581 0.03566,-0.202045 0,-0.206006 -0.174313,-0.344664 -0.522939,-0.415974 -0.348626,-0.07131 -0.804217,-0.106965 -1.366772,-0.106965 -1.196422,0 -2.218529,0.241662 -3.066325,0.724984 -0.388242,-0.657635 -0.582364,-1.489584 -0.582364,-2.4958448 0,-0.5704789 0.07131,-0.9943763 0.213931,-1.2716925 0.570478,-0.2614695 1.295462,-0.4912457 2.174951,-0.6893286 0.879487,-0.2060062 1.806516,-0.3090094 2.781084,-0.3090094 2.012521,0 3.533791,0.4397441 4.563821,1.3192324 1.03003,0.8794879 1.54505,2.1274109 1.54505,3.7437679 z m -6.1683,0.582364 c -0.332778,0 -0.499168,0.150543 -0.499168,0.451629 0,0.285239 0.194121,0.427859 0.582364,0.427859 0.269392,0 0.467475,-0.06339 0.594248,-0.190159 0.126773,-0.134697 0.190159,-0.364473 0.190159,-0.689329 z m 20.09749,-0.582364 c 0,0.570479 0.0634,1.030031 0.19016,1.378657 0.12677,0.348626 0.34862,0.621981 0.66556,0.820063 0.008,0.03961 0.0119,0.114887 0.0119,0.225815 v 0.213929 c 0,1.093419 -0.31693,1.945176 -0.95079,2.55527 -0.62594,0.602172 -1.43809,0.903258 -2.43642,0.903258 -0.99042,0 -1.79464,-0.281277 -2.41265,-0.843832 -0.72103,-0.64179 -1.08153,-1.616357 -1.08153,-2.923705 0,-0.554632 0.0238,-1.041916 0.0713,-1.461852 0.0555,-0.42786 0.0911,-0.732907 0.10696,-0.915143 0.0238,-0.182236 0.0475,-0.352587 0.0713,-0.511054 0.0238,-0.158467 0.0357,-0.392205 0.0357,-0.701214 0,-0.30901 -0.0436,-0.530862 -0.13073,-0.665559 -0.0793,-0.134696 -0.19413,-0.202044 -0.34466,-0.202044 -0.14263,0 -0.2694,0.03169 -0.38033,0.09508 l 0.15451,1.937251 c -0.14263,0.800255 -0.21393,1.64805 -0.21393,2.543385 0,0.895334 0.20204,1.711436 0.60613,2.448305 -0.77649,0.800255 -1.86594,1.200382 -3.26836,1.200382 -0.80026,0 -1.49355,-0.209967 -2.07987,-0.629903 -0.68141,-0.475399 -1.02211,-1.105303 -1.02211,-1.889712 v -5.752328 c -0.46748,-0.657635 -0.70121,-1.465814 -0.70121,-2.424535 0,-0.9666445 0.23373,-1.8025546 0.70121,-2.5077299 h 2.11552 c 0.56256,0 1.04192,0.209968 1.43809,0.6299038 -0.34864,0.324856 -0.52295,0.5942488 -0.52295,0.8081784 0,0.2456229 0.13867,0.3684343 0.41598,0.3684343 0.34863,-0.6021722 0.87949,-1.1013412 1.59259,-1.497507 0.72102,-0.3961659 1.53712,-0.5942488 2.4483,-0.5942488 1.37074,0 2.48396,0.3367409 3.33968,1.0102229 1.07757,0.847795 1.61636,2.1630653 1.61636,3.9458113 z m 7.92728,-2.543386 c -0.0793,-0.07923 -0.17432,-0.118849 -0.28524,-0.118849 -0.17431,0 -0.29316,0.126774 -0.35655,0.380319 -0.0633,0.245623 -0.0951,0.748754 -0.0951,1.509393 v 1.212267 c 0,0.21393 0.0277,0.364472 0.0832,0.451629 0.0555,0.08716 0.14657,0.130734 0.27335,0.130734 0.12677,0 0.21789,-0.02773 0.27335,-0.0832 v -1.592585 c 0,-0.776485 0.0357,-1.406389 0.10697,-1.889711 z M 125.1223,5.2749531 c 0.41993,-0.4912457 0.88345,-0.8596799 1.39054,-1.1053027 0.5071,-0.2535462 1.15285,-0.3803193 1.93725,-0.3803193 0.9508,0 1.72332,0.2654312 2.31757,0.7962934 0.6101,0.5704789 0.91515,1.3390407 0.91515,2.3056854 v 7.8440841 c 0,1.180574 0.28524,1.949136 0.85572,2.305685 0.008,0.03961 0.0119,0.114887 0.0119,0.225815 v 0.213929 c 0,1.125112 -0.3407,2.000638 -1.02211,2.62658 -0.60217,0.554632 -1.34696,0.831948 -2.23437,0.831948 -0.61802,0 -1.15285,-0.130734 -1.60448,-0.392203 -0.53086,-0.301087 -0.90325,-0.713099 -1.11719,-1.236038 -0.26939,0 -0.40409,0.130735 -0.40409,0.392204 0,0.11885 0.0436,0.257508 0.13074,0.415974 0.0951,0.150544 0.22186,0.28524 0.38032,0.404089 -0.46747,0.277316 -1.07361,0.415974 -1.8184,0.415974 -1.00626,0 -1.94914,-0.229776 -2.82862,-0.689328 -0.87157,-0.467475 -1.56486,-1.16869 -2.07987,-2.103641 -0.59425,-1.069648 -0.89138,-2.36511 -0.89138,-3.886387 0,-2.02837 0.56652,-3.620957 1.69956,-4.7777603 1.14095,-1.1568043 2.59488,-1.7352065 4.36178,-1.7352065 1.04588,0 1.95706,0.1980829 2.73355,0.5942489 0.0871,-0.087156 0.13073,-0.1782747 0.13073,-0.2733546 0,-0.2376995 -0.28128,-0.4397441 -0.84383,-0.6061338 -0.56256,-0.1663896 -1.12908,-0.2495845 -1.69956,-0.2495845 0,-0.8081783 -0.10696,-1.4539287 -0.32089,-1.9372511 z m 14.05994,4.7539909 v 4.70645 c 0,1.180574 0.28523,1.949136 0.85571,2.305685 0.008,0.03961 0.0119,0.114887 0.0119,0.225815 v 0.213929 c 0,1.164728 -0.31693,2.040255 -0.9508,2.62658 -0.58633,0.554632 -1.37073,0.831948 -2.35322,0.831948 -0.97457,0 -1.77879,-0.277316 -2.41266,-0.831948 -0.80025,-0.705175 -1.20038,-1.735206 -1.20038,-3.090093 V 9.2920751 c 0.14262,-0.1030031 0.29712,-0.1861979 0.46351,-0.2495845 0.16639,-0.063387 0.34071,-0.1426199 0.52295,-0.2376996 -0.3407,-0.1743129 -0.64972,-0.475399 -0.92704,-0.9032582 -0.27732,-0.4357824 -0.41597,-0.9428747 -0.41597,-1.5212769 0,-0.998338 0.32881,-1.8144397 0.98646,-2.4483051 0.65763,-0.6338654 1.46184,-0.9507981 2.41264,-0.9507981 0.95873,0 1.75898,0.324856 2.40077,0.9745681 0.64971,0.6417886 0.97457,1.4499671 0.97457,2.4245351 0,0.7844085 -0.24563,1.4737371 -0.73687,2.0679859 -0.49125,0.5863255 -1.08946,0.9547598 -1.79463,1.1053028 0,0.3010857 0.11489,0.4516284 0.34466,0.4516284 0.40409,0 0.81611,-0.1584657 1.23604,-0.4753984 0.31693,0.2456227 0.51105,0.4120127 0.58237,0.4991694 z m 13.40624,4.813415 c 0,0.570479 0.0633,1.030031 0.19015,1.378657 0.12677,0.348626 0.34863,0.621981 0.66557,0.820063 0.008,0.03961 0.0119,0.114887 0.0119,0.225815 v 0.213929 c 0,1.125112 -0.3407,2.000638 -1.02211,2.62658 -0.60217,0.554632 -1.34696,0.831948 -2.23437,0.831948 -0.60218,0 -1.15285,-0.142619 -1.65202,-0.427858 -0.49917,-0.28524 -0.85572,-0.697253 -1.06964,-1.236038 -0.2694,0 -0.40409,0.130735 -0.40409,0.392204 0,0.221853 0.13865,0.471438 0.41597,0.748754 -0.51501,0.348626 -1.2915,0.522938 -2.32946,0.522938 -1.46581,0 -2.63846,-0.396165 -3.51795,-1.188497 -0.87157,-0.800255 -1.30735,-1.913482 -1.30735,-3.339679 0,-1.43412 0.46352,-2.543384 1.39055,-3.327793 0.8478,-0.705176 1.94518,-1.057763 3.29213,-1.057763 0.45956,0 0.90326,0.03169 1.33112,0.09508 0.28524,0.05546 0.43974,0.08716 0.46352,0.09508 0.0238,-0.07923 0.0357,-0.146581 0.0357,-0.202045 0,-0.206006 -0.17432,-0.344664 -0.52295,-0.415974 -0.34862,-0.07131 -0.80421,-0.106965 -1.36677,-0.106965 -1.19642,0 -2.21853,0.241662 -3.06632,0.724984 -0.38825,-0.657635 -0.58237,-1.489584 -0.58237,-2.4958448 0,-0.5704789 0.0713,-0.9943763 0.21394,-1.2716925 0.57047,-0.2614695 1.29545,-0.4912457 2.17494,-0.6893286 0.87948,-0.2060062 1.80652,-0.3090094 2.78108,-0.3090094 2.01253,0 3.5338,0.4397441 4.56384,1.3192324 1.03003,0.8794879 1.54505,2.1274109 1.54505,3.7437679 z m -6.16831,0.582364 c -0.33278,0 -0.49917,0.150543 -0.49917,0.451629 0,0.285239 0.19412,0.427859 0.58237,0.427859 0.26939,0 0.46747,-0.06339 0.59424,-0.190159 0.12677,-0.134697 0.19016,-0.364473 0.19016,-0.689329 z"
       style="font-size:25.4px;line-height:65%;font-family:Modak;-inkscape-font-specification:Modak;fill:#57975b;fill-opacity:1;stroke:none;stroke-width:3.52778;stroke-linecap:round;stroke-linejoin:round;stroke-dasharray:none;stroke-opacity:1;paint-order:stroke fill markers"
       id="path1-8"
       sodipodi:nodetypes="cscsscscscscscsccsscsscscscscsccssscsccsssssssccscscsscscsccsscsccscscscscscsccsccccscsssscsscccscsscsscsccsccsccscscsscsccscsscscscsccssscsccscsccccsscsscscscscsccssscsccssccsssccs"
       inkscape:label="landia"
       transform="matrix(1.0435312,0,0,1.0435312,-4.8123106,-0.35216407)" />
    <path
       style="font-size:25.4px;line-height:65%;font-family:Modak;-inkscape-font-specification:Modak;fill:#75a75f;stroke:none;stroke-width:3.68135;stroke-linecap:round;stroke-linejoin:round;stroke-dasharray:none;stroke-opacity:1;paint-order:stroke fill markers;fill-opacity:1"
       d="m 156.81866,15.298742 c 0.7028,-0.702799 1.54202,-1.054199 2.51767,-1.054199 0.97565,0 1.82315,0.3514 2.54248,1.054199 0.7028,0.719336 1.0542,1.570964 1.0542,2.554883 0,0.975651 -0.3514,1.814876 -1.0542,2.517676 -0.71107,0.694531 -1.55856,1.041796 -2.54248,1.041796 -0.98392,0 -1.82728,-0.347265 -2.53007,-1.041796 -0.69453,-0.7028 -1.0418,-1.542025 -1.0418,-2.517676 0,-0.983919 0.3514,-1.835547 1.0542,-2.554883 z m 13.54337,6.374805 c -2.14974,0 -3.8654,-0.661458 -5.14698,-1.984375 -1.27331,-1.331185 -1.90996,-3.112989 -1.90996,-5.34541 0,-2.232422 0.72347,-3.997689 2.17041,-5.2958012 1.28985,-1.1575521 2.90215,-1.7363281 4.83692,-1.7363281 1.71979,0 3.14605,0.4258138 4.2788,1.2774414 1.13275,0.8433594 1.69913,1.9926429 1.69913,3.4478519 0,1.008724 -0.31419,1.831413 -0.94258,2.468066 -0.62012,0.628385 -1.43868,0.942578 -2.45567,0.942578 -0.82682,0 -1.51722,-0.219108 -2.07119,-0.657324 -0.5457,-0.446485 -0.86816,-1.025261 -0.96738,-1.736328 -0.3638,0 -0.5457,0.132292 -0.5457,0.396875 0,0.603581 0.29766,1.157552 0.89297,1.661914 0.68626,0.595313 1.53789,0.892969 2.55488,0.892969 1.02526,0 1.87275,-0.219108 2.54248,-0.657325 0.41341,0.636654 0.62012,1.409734 0.62012,2.319239 0,1.058333 -0.45475,1.963704 -1.36426,2.716113 -1.0418,0.859896 -2.43913,1.289844 -4.19199,1.289844 z m 12.93564,-7.292578 v 2.17041 c 0.0579,0.05788 0.15295,0.08682 0.28525,0.08682 0.13229,0 0.22738,-0.04547 0.28526,-0.136426 0.0579,-0.09095 0.0868,-0.248046 0.0868,-0.471289 v -1.773535 c 0,-0.79375 -0.0331,-1.318782 -0.0992,-1.575097 -0.0661,-0.264583 -0.19016,-0.396875 -0.37207,-0.396875 -0.11575,0 -0.21497,0.04134 -0.29765,0.124023 0.0744,0.818555 0.11162,1.475879 0.11162,1.971973 z m -4.63848,5.494238 c -1.35599,-1.306381 -2.03398,-3.075782 -2.03398,-5.308203 0,-2.24069 0.63665,-4.005957 1.90996,-5.295801 1.28157,-1.2981119 2.96002,-1.9471679 5.03535,-1.9471679 2.07533,0 3.75378,0.6738607 5.03535,2.021582 1.27331,1.3477209 1.90996,3.1047199 1.90996,5.2709959 0,2.158008 -0.61598,3.873666 -1.84795,5.146973 -1.22369,1.273307 -2.88974,1.909961 -4.99814,1.909961 -2.1084,0 -3.77858,-0.599447 -5.01055,-1.79834 z m 32.74218,-4.725293 c 0,0.603581 0.0662,1.09554 0.19844,1.475879 0.13229,0.380339 0.3638,0.673861 0.69453,0.880566 0.008,0.04134 0.0124,0.11162 0.0124,0.21084 v 0.186035 c 0,1.132747 -0.33073,2.017448 -0.99218,2.654102 -0.66146,0.636653 -1.51722,0.95498 -2.56729,0.95498 -1.04179,0 -1.88102,-0.285254 -2.51768,-0.855762 -0.75241,-0.661458 -1.12861,-1.674316 -1.12861,-3.038574 v -3.91914 c 0,-0.553971 -0.1819,-0.830957 -0.5457,-0.830957 -0.14056,0 -0.25218,0.03307 -0.33486,0.09922 l 0.22324,1.84795 v 2.802929 c 0,1.124479 0.18603,1.976107 0.5581,2.554883 -0.39687,0.42168 -0.89297,0.752409 -1.48828,0.992188 -0.58704,0.23151 -1.18649,0.347265 -1.79834,0.347265 -0.99219,0 -1.76113,-0.239779 -2.30683,-0.719336 -0.66146,-0.578776 -0.99219,-1.492415 -0.99219,-2.740918 V 13.69884 c 0,-0.553971 -0.1819,-0.830957 -0.5457,-0.830957 -0.14056,0 -0.25218,0.03307 -0.33487,0.09922 l 0.22324,1.84795 v 3.286621 c 0,0.926041 0.12402,1.641243 0.37207,2.145605 -0.81029,0.835091 -1.94717,1.252637 -3.41064,1.252637 -0.86817,0 -1.5999,-0.219108 -2.19521,-0.657324 -0.68627,-0.504362 -1.0294,-1.182357 -1.0294,-2.033985 v -5.92832 c -0.48783,-0.686263 -0.73174,-1.529623 -0.73174,-2.530078 0,-1.008724 0.24391,-1.8810222 0.73174,-2.6168946 h 2.98897 c 0.58704,0 1.08727,0.2191081 1.50068,0.6573242 -0.3638,0.3389974 -0.5457,0.6201172 -0.5457,0.8433594 0,0.2563151 0.14469,0.3844727 0.43408,0.3844727 0.3638,-0.6283855 0.86403,-1.1286133 1.50068,-1.5006836 0.74414,-0.4216797 1.61644,-0.6325195 2.6169,-0.6325195 0.76067,0 1.42626,0.1612305 1.99677,0.4836914 0.57878,0.3224609 1.00873,0.6945312 1.28985,1.1162109 0.38861,-0.5291667 0.89297,-0.9260417 1.51308,-1.190625 0.62839,-0.2728515 1.28158,-0.4092773 1.95957,-0.4092773 1.49655,0 2.65824,0.4630208 3.48506,1.3890624 0.81029,0.926042 1.21543,2.195215 1.21543,3.80752 z"
       id="path2"
       aria-label="Xalapalandia.com"
       inkscape:label="com"
       sodipodi:nodetypes="cscscscscscscscscsccscscscsccsssscscsccscscscsccscsssscsssccsccscsssccscscscscscsccscccsccc" />
  </g>
</svg>
